<svg width="1450" height="382" viewBox="0 0 1450 382" fill="none" xmlns="http://www.w3.org/2000/svg">
<path d="M537.495 284.883C519.275 284.883 503.125 281.239 489.045 273.951C474.966 266.497 464.034 255.979 456.249 242.396C448.464 228.648 444.571 212.664 444.571 194.444C444.571 176.224 448.464 160.322 456.249 146.74C464.034 132.992 474.966 122.391 489.045 114.937C503.125 107.483 519.275 103.757 537.495 103.757C549.918 103.757 561.016 105.082 570.788 107.732C580.561 110.382 589.423 114.606 597.373 120.403V150.467C590.085 144.172 581.72 139.617 572.279 136.802C562.838 133.986 552.154 132.578 540.228 132.578C528.302 132.578 517.452 135.145 507.68 140.28C498.073 145.249 490.453 152.454 484.822 161.896C479.19 171.172 476.374 182.021 476.374 194.444C476.374 207.032 479.024 218.047 484.325 227.489C489.625 236.765 496.996 243.97 506.438 249.105C515.879 254.074 526.645 256.559 538.737 256.559C551.491 256.559 562.009 254.405 570.291 250.099V211.091H540.973V185.996H601.846V266.994C586.441 278.92 564.991 284.883 537.495 284.883ZM644.305 141.025C639.336 141.025 635.112 139.369 631.633 136.056C628.321 132.743 626.664 128.602 626.664 123.633C626.664 118.664 628.321 114.523 631.633 111.21C635.112 107.732 639.336 105.993 644.305 105.993C649.274 105.993 653.498 107.732 656.976 111.21C660.455 114.523 662.194 118.664 662.194 123.633C662.194 128.602 660.455 132.743 656.976 136.056C653.498 139.369 649.274 141.025 644.305 141.025ZM628.403 161.896H660.206V281.156H628.403V161.896ZM739.886 284.883C726.8 284.883 716.862 281.239 710.071 273.951C703.279 266.662 699.884 256.393 699.884 243.142V185.748H681.995V161.896H699.884V126.118H731.189V161.896H759.762V185.748H731.189V239.166C731.189 246.786 732.597 252.252 735.413 255.565C738.229 258.712 743.364 260.285 750.818 260.285C755.952 260.285 761.004 259.126 765.974 256.807V280.659C758.851 283.475 750.155 284.883 739.886 284.883ZM769.702 107.483H802.499L837.035 230.222L871.073 107.483H895.422L929.461 230.222L963.997 107.483H996.793L947.35 281.156H918.032L883.248 160.405L848.464 281.156H819.146L769.702 107.483ZM1067.84 284.883C1053.93 284.883 1041.67 282.398 1031.07 277.429C1020.63 272.294 1012.52 265.006 1006.72 255.565C1000.92 245.958 998.022 234.611 998.022 221.526C998.022 208.772 1000.84 197.674 1006.47 188.232C1012.27 178.625 1020.47 171.254 1031.07 166.12C1041.67 160.819 1053.93 158.169 1067.84 158.169C1081.75 158.169 1093.93 160.819 1104.36 166.12C1114.96 171.254 1123.16 178.625 1128.96 188.232C1134.76 197.674 1137.66 208.772 1137.66 221.526C1137.66 234.611 1134.76 245.958 1128.96 255.565C1123.16 265.006 1114.96 272.294 1104.36 277.429C1093.93 282.398 1081.75 284.883 1067.84 284.883ZM1067.84 260.285C1079.27 260.285 1088.38 256.724 1095.17 249.602C1101.96 242.314 1105.36 232.955 1105.36 221.526C1105.36 209.434 1101.96 199.993 1095.17 193.202C1088.54 186.245 1079.43 182.766 1067.84 182.766C1056.24 182.766 1047.05 186.245 1040.26 193.202C1033.63 199.993 1030.32 209.434 1030.32 221.526C1030.32 232.955 1033.72 242.314 1040.51 249.602C1047.3 256.724 1056.41 260.285 1067.84 260.285ZM1162.4 161.896H1192.71V178.046C1198.35 171.254 1205.05 166.285 1212.84 163.138C1220.62 159.825 1228.82 158.169 1237.44 158.169C1253.5 158.169 1265.51 162.558 1273.46 171.337C1281.41 179.95 1285.39 191.462 1285.39 205.873V281.156H1254.08V208.854C1254.08 191.462 1245.97 182.766 1229.73 182.766C1222.61 182.766 1215.9 184.506 1209.61 187.984C1203.32 191.297 1198.01 196.349 1193.71 203.14V281.156H1162.4V161.896ZM1314.05 97.5451H1345.36V214.321L1392.81 161.896H1429.58L1376.41 220.284L1435.55 281.156H1398.77L1345.36 225.998V281.156H1314.05V97.5451Z" fill="#111C18"/>
<rect width="379.377" height="374.658" rx="80" fill="#00D37F"/>
<path d="M176.99 180.187C176.99 186.926 171.461 192.386 164.637 192.386C157.816 192.386 152.285 186.926 152.285 180.187C152.285 173.451 157.816 167.989 164.637 167.989C171.461 167.989 176.99 173.451 176.99 180.187Z" fill="#111C18"/>
<path d="M227.25 228.145C217.335 237.861 203.931 243.313 189.962 243.313C175.995 243.313 162.591 237.861 152.676 228.145C151.303 226.769 149.06 226.753 147.664 228.11C146.271 229.467 146.255 231.684 147.631 233.06C158.853 244.169 174.091 250.413 189.98 250.413C205.871 250.413 221.11 244.169 232.331 233.06C233.699 231.699 233.699 229.504 232.331 228.145C231.666 227.463 230.75 227.078 229.79 227.078C228.832 227.078 227.915 227.463 227.25 228.145H227.25Z" fill="#111C18"/>
<path d="M227.635 180.187C227.635 186.926 222.104 192.386 215.283 192.386C208.459 192.386 202.931 186.926 202.931 180.187C202.931 173.451 208.459 167.989 215.283 167.989C222.104 167.989 227.635 173.451 227.635 180.187Z" fill="#111C18"/>
<path d="M299.735 161.751C287.311 145.265 266.418 147.809 257.914 149.517C251.914 128.954 230.704 118.149 223.61 114.978V100.164C223.655 98.5999 222.64 97.2002 221.127 96.7369C219.615 96.2736 217.974 96.8639 217.117 98.1776C214.045 102.189 210.147 105.516 205.681 107.936C207.061 98.3283 204.607 88.5675 198.834 80.7145C197.959 79.7272 196.593 79.3089 195.307 79.6354C193.947 79.9951 192.935 81.1191 192.73 82.4934C192.73 82.4934 189.976 99.1178 180.201 105.95C174.13 106.925 138.944 114.106 122.533 149.655C114.486 147.808 92.8876 144.915 80.1813 161.75H80.1833C75.1097 168.743 72.7442 177.299 73.5124 185.867C74.3953 197.962 79.5478 218.107 104.04 221.731C102.981 230.235 102.17 251.182 116.357 268.748C130.544 286.315 155.179 295.063 189.588 295.131H190.011C224.492 295.131 249.124 286.209 263.242 268.748C277.36 251.287 276.653 230.409 275.559 221.731C300.051 218.246 305.311 197.962 306.193 185.867C307.037 177.324 304.744 168.766 299.734 161.75L299.735 161.751ZM121.718 171.58C121.112 173.406 119.123 174.405 117.272 173.81C117.06 173.81 106.683 170.673 101.743 177.296V177.294C100.113 179.575 99.387 182.363 99.6957 185.137C99.763 186.062 99.4562 186.975 98.8386 187.674C98.223 188.374 97.35 188.804 96.4137 188.867H96.1663C94.3095 188.871 92.7675 187.453 92.6368 185.626C92.2568 181.17 93.5098 176.731 96.1663 173.112C104.248 162.447 118.931 166.978 119.53 167.187C121.353 167.815 122.328 169.77 121.718 171.58ZM189.972 273.281C153.092 273.281 122.919 254.147 122.919 230.587C122.919 219.853 128.954 209.676 140.036 201.938C135.906 196.13 133.699 189.202 133.719 182.106C133.511 173.452 136.785 165.069 142.827 158.798C148.866 152.525 157.178 148.875 165.941 148.646C175.2 148.629 183.994 152.646 189.974 159.625C195.955 152.722 204.67 148.717 213.869 148.646C222.626 148.875 230.936 152.527 236.972 158.8C243.005 165.073 246.273 173.456 246.056 182.106C246.06 189.2 243.853 196.122 239.737 201.938C250.818 209.779 257.03 219.853 257.03 230.587C257.03 254.147 226.856 273.281 189.976 273.281H189.972ZM283.782 188.865H283.535C282.599 188.803 281.726 188.373 281.108 187.673C280.492 186.973 280.184 186.06 280.253 185.135C280.536 182.363 279.81 179.583 278.206 177.292C273.125 170.566 262.784 173.807 262.677 173.807V173.809C261.776 174.135 260.78 174.086 259.917 173.674C259.054 173.261 258.399 172.519 258.102 171.619C257.805 170.718 257.89 169.737 258.342 168.9C258.791 168.065 259.567 167.446 260.489 167.186C261.125 166.977 275.807 162.445 283.853 173.111H283.851C286.504 176.731 287.755 181.171 287.381 185.624C287.25 187.479 285.665 188.906 283.782 188.865Z" fill="#111C18"/>
</svg>
