<svg width="424" height="424" viewBox="0 0 424 424" fill="none" xmlns="http://www.w3.org/2000/svg">
<rect width="424" height="424" rx="70" fill="#00D37F"/>
<path d="M197.807 203.918C197.807 211.544 191.628 217.723 184.002 217.723C176.378 217.723 170.197 211.544 170.197 203.918C170.197 196.294 176.378 190.113 184.002 190.113C191.628 190.113 197.807 196.294 197.807 203.918Z" fill="#131313" fill-opacity="0.95"/>
<path d="M253.978 258.192C242.897 269.187 227.917 275.358 212.304 275.358C196.695 275.358 181.714 269.187 170.633 258.192C169.098 256.634 166.591 256.617 165.031 258.152C163.474 259.687 163.456 262.196 164.994 263.754C177.536 276.326 194.566 283.393 212.324 283.393C230.085 283.393 247.116 276.326 259.657 263.754C261.186 262.214 261.186 259.729 259.657 258.192C258.914 257.42 257.889 256.984 256.816 256.984C255.746 256.984 254.721 257.42 253.978 258.192H253.978Z" fill="#131313" fill-opacity="0.95"/>
<path d="M254.409 203.918C254.409 211.544 248.227 217.723 240.604 217.723C232.978 217.723 226.799 211.544 226.799 203.918C226.799 196.294 232.978 190.113 240.604 190.113C248.227 190.113 254.409 196.294 254.409 203.918Z" fill="#131313" fill-opacity="0.95"/>
<path d="M334.99 183.053C321.105 164.397 297.754 167.275 288.25 169.209C281.545 145.937 257.84 133.709 249.911 130.121V113.356C249.962 111.586 248.827 110.002 247.136 109.477C245.446 108.953 243.612 109.621 242.654 111.108C239.221 115.648 234.865 119.413 229.874 122.152C231.416 111.278 228.673 100.232 222.221 91.3448C221.243 90.2276 219.717 89.7542 218.279 90.1237C216.759 90.5307 215.628 91.8028 215.398 93.3581C215.398 93.3581 212.321 112.172 201.396 119.904C194.611 121.008 155.287 129.134 136.945 169.365C127.952 167.274 103.813 164 89.6121 183.053H89.6143C83.9439 190.966 81.3002 200.649 82.1588 210.346C83.1455 224.034 88.9041 246.832 116.277 250.933C115.094 260.557 114.187 284.262 130.043 304.142C145.898 324.022 173.431 333.922 211.887 334H212.36C250.897 334 278.426 323.903 294.205 304.142C309.983 284.381 309.193 260.754 307.97 250.933C335.343 246.989 341.221 224.034 342.208 210.346C343.15 200.678 340.589 190.992 334.989 183.053L334.99 183.053ZM136.034 194.177C135.357 196.243 133.134 197.374 131.065 196.701C130.829 196.701 119.231 193.151 113.709 200.646V200.644C111.889 203.226 111.077 206.38 111.422 209.52C111.497 210.566 111.154 211.599 110.464 212.391C109.776 213.183 108.8 213.67 107.754 213.741H107.477C105.402 213.745 103.679 212.141 103.533 210.073C103.108 205.031 104.508 200.007 107.477 195.912C116.51 183.841 132.919 188.969 133.589 189.206C135.627 189.916 136.716 192.129 136.034 194.177ZM212.317 309.272C171.099 309.272 137.377 287.618 137.377 260.955C137.377 248.807 144.122 237.29 156.506 228.533C151.892 221.961 149.425 214.12 149.447 206.089C149.214 196.295 152.874 186.809 159.626 179.712C166.376 172.612 175.665 168.482 185.459 168.223C195.807 168.203 205.636 172.75 212.319 180.648C219.003 172.836 228.744 168.303 239.024 168.223C248.811 168.482 258.099 172.615 264.844 179.714C271.587 186.813 275.24 196.3 274.997 206.089C275.001 214.118 272.535 221.952 267.935 228.533C280.32 237.407 287.262 248.807 287.262 260.955C287.262 287.618 253.539 309.272 212.322 309.272H212.317ZM317.161 213.739H316.885C315.838 213.668 314.862 213.182 314.172 212.39C313.484 211.598 313.139 210.564 313.216 209.518C313.533 206.381 312.721 203.235 310.929 200.642C305.25 193.03 293.692 196.697 293.573 196.697V196.7C292.566 197.069 291.453 197.014 290.489 196.547C289.524 196.08 288.792 195.24 288.46 194.222C288.128 193.202 288.223 192.091 288.728 191.144C289.23 190.2 290.097 189.499 291.128 189.204C291.838 188.968 308.248 183.839 317.24 195.91H317.238C320.203 200.007 321.601 205.031 321.183 210.071C321.037 212.171 319.265 213.786 317.161 213.739Z" fill="#131313" fill-opacity="0.95"/>
</svg>
